<?xml version="1.0" encoding="utf-8"?>
<!-- Generator: Adobe Illustrator 27.3.1, SVG Export Plug-In . SVG Version: 6.00 Build 0)  -->
<svg version="1.1" id="Logo" xmlns="http://www.w3.org/2000/svg" xmlns:xlink="http://www.w3.org/1999/xlink" x="0px" y="0px"
	 viewBox="0 0 145 36.8" style="enable-background:new 0 0 145 36.8;" xml:space="preserve">
<style type="text/css">
	.st0{fill:#E21A23;}
	.st1{fill:#FFFFFF;}
</style>
<g>
	<path d="M141.2,2.1c0-1,0.8-1.7,1.7-1.7c1,0,1.7,0.8,1.7,1.7c0,1-0.8,1.7-1.7,1.7C141.9,3.8,141.2,3.1,141.2,2.1z M141.4,2.1
		c0,0.8,0.7,1.5,1.5,1.5c0.8,0,1.5-0.7,1.5-1.5c0-0.8-0.7-1.5-1.5-1.5C142.1,0.6,141.4,1.3,141.4,2.1z M142.9,2.3h-0.3v0.8h-0.3v-2
		h0.8c0.4,0,0.6,0.2,0.6,0.6c0,0.4-0.4,0.6-0.5,0.6l0.5,0.8h-0.3L142.9,2.3z M142.5,1.4v0.7h0.5c0.2,0,0.4-0.1,0.4-0.3
		c0-0.2-0.2-0.4-0.4-0.4H142.5z"/>
</g>
<g id="Pinwheel">
	<polygon class="st0" points="130.9,23.8 139.2,19 130.9,14 	"/>
	<polygon points="117.8,6.8 115.6,8.3 117.1,9.8 	"/>
	<polygon points="119.3,6.4 118.4,4.6 121.5,4 	"/>
	<polygon points="124.5,1.1 123,3.9 126.5,2.4 	"/>
	<polygon points="130,0.4 126.7,3.7 131.5,3.3 	"/>
	<polygon points="130,5.3 134.6,7.5 135.7,3.1 	"/>
	<polygon points="130.2,9 135.3,14.7 138.7,8.5 	"/>
</g>
<g id="Access">
	<path d="M56.7,22.2h-7.9l-1.1,3h-4.1l6.8-17.7h4.7l6.8,17.7h-4.1L56.7,22.2z M49.8,18.9h5.9l-2.9-8.1L49.8,18.9z"/>
	<path d="M69.5,12.1c2.6,0,4.2,1.1,5.1,2.3l-2.2,2c-0.6-0.9-1.5-1.4-2.7-1.4c-2,0-3.5,1.5-3.5,3.7s1.4,3.7,3.5,3.7
		c1.2,0,2.1-0.5,2.7-1.4l2.2,2c-0.8,1.2-2.4,2.3-5.1,2.3c-3.9,0-6.8-2.8-6.8-6.7C62.7,14.9,65.5,12.1,69.5,12.1z"/>
	<path d="M82.7,12.1c2.6,0,4.2,1.1,5.1,2.3l-2.2,2C85,15.5,84.1,15,82.9,15c-2,0-3.5,1.5-3.5,3.7s1.4,3.7,3.5,3.7
		c1.2,0,2.1-0.5,2.7-1.4l2.2,2c-0.8,1.2-2.4,2.3-5.1,2.3c-3.9,0-6.8-2.8-6.8-6.7C75.9,14.9,78.7,12.1,82.7,12.1z"/>
	<path d="M95.8,12.1c3.8,0,6.4,2.9,6.4,7.1v0.7h-9.5c0.2,1.6,1.5,3,3.7,3c1.2,0,2.6-0.5,3.4-1.3l1.5,2.2C100,25,98,25.6,96,25.6
		c-3.9,0-6.8-2.6-6.8-6.7C89.1,15.1,91.9,12.1,95.8,12.1z M92.6,17.6h6.3c-0.1-1.2-0.9-2.8-3.2-2.8C93.7,14.8,92.8,16.4,92.6,17.6z"
		/>
	<path d="M105,21.2c0.9,0.9,2.8,1.7,4.4,1.7c1.5,0,2.1-0.5,2.1-1.3c0-0.9-1.1-1.2-2.6-1.5c-2.2-0.4-5-1-5-4c0-2.1,1.9-4,5.2-4
		c2.2,0,3.9,0.7,5.1,1.7l-1.3,2.3c-0.8-0.8-2.2-1.5-3.8-1.5c-1.2,0-2,0.5-2,1.2c0,0.8,1,1.1,2.4,1.4c2.2,0.4,5.1,1,5.1,4.2
		c0,2.4-2,4.1-5.5,4.1c-2.2,0-4.4-0.7-5.7-2L105,21.2z"/>
	<path d="M117.6,21.2c0.9,0.9,2.8,1.7,4.4,1.7c1.5,0,2.1-0.5,2.1-1.3c0-0.9-1.1-1.2-2.6-1.5c-2.2-0.4-5-1-5-4c0-2.1,1.9-4,5.2-4
		c2.2,0,3.9,0.7,5.1,1.7l-1.3,2.3c-0.8-0.8-2.2-1.5-3.8-1.5c-1.2,0-2,0.5-2,1.2c0,0.8,1,1.1,2.4,1.4c2.2,0.4,5.1,1,5.1,4.2
		c0,2.4-2,4.1-5.5,4.1c-2.2,0-4.4-0.7-5.7-2L117.6,21.2z"/>
</g>
<g id="Red_Cube">
	<polygon id="Square" class="st0" points="36.4,36.4 0.4,36.4 0.4,0.4 36.4,0.4 	"/>
	<g id="McGraw_Hill">
		<polygon class="st1" points="12.3,12 11.7,6.2 9.7,12 7.8,12 5.8,6.2 5.3,12 3.3,12 4.2,3.3 6.7,3.3 8.9,9.3 10.9,3.3 13.4,3.3 
			14.4,12 		"/>
		<path class="st1" d="M18.8,12.2c-2.1,0-3.4-1.5-3.4-3.4c0-2,1.5-3.5,3.5-3.5c1.5,0,2.3,0.7,2.3,0.8l-0.8,1.3
			c-0.1,0-0.6-0.4-1.2-0.4c-1,0-1.7,0.7-1.7,1.7s0.5,1.8,1.6,1.8c0.8,0,1.4-0.4,1.5-0.5l0.8,1.3C21.3,11.4,20.5,12.2,18.8,12.2
			L18.8,12.2z"/>
		<polygon class="st1" points="8.4,33.4 8.4,29.8 5.4,29.8 5.4,33.4 3.3,33.4 3.3,24.7 5.4,24.7 5.4,28 8.4,28 8.4,24.7 10.5,24.7 
			10.5,33.4 		"/>
		<path class="st1" d="M12.3,33.4v-5.6h2.1v5.6H12.3L12.3,33.4z M13.4,26.8c-0.6,0-1.1-0.5-1.1-1.1s0.5-1.1,1.1-1.1s1.1,0.5,1.1,1.1
			S14,26.8,13.4,26.8L13.4,26.8z"/>
		<polygon class="st1" points="16.2,33.4 16.2,24.7 18.2,24.7 18.2,33.4 		"/>
		<polygon class="st1" points="20,33.4 20,24.7 22,24.7 22,33.4 		"/>
		<path class="st1" d="M7.2,22.9c-2.7,0-4.6-1.7-4.6-4.5c0-2.9,2-4.7,4.7-4.7c2,0,2.9,0.8,3.1,1l-0.9,1.4c-0.2-0.1-0.9-0.6-2-0.6
			c-1.5,0-2.6,1-2.6,2.8c0,2,1.2,2.9,2.6,2.9c0.6,0,1-0.1,1.2-0.2v-1.3H7v-1.6h3.5v3.8C10.4,22,9.4,22.9,7.2,22.9L7.2,22.9z"/>
		<polygon class="st1" points="31.7,22.5 29.6,22.5 28.5,18.5 27.5,22.5 25.5,22.5 23.6,16 25.6,16 26.6,20.2 27.7,16 29.5,16 
			30.6,20.2 31.5,16 33.5,16 		"/>
		<path class="st1" d="M16.1,17.5c-0.9,0-1.4,0.5-1.7,0.9v4.1h-2.1V16H14v0.9c0-0.1,0.8-1.1,2.2-1.1h0.1c0.1,0,0.1,0,0.1,0
			L16.1,17.5L16.1,17.5L16.1,17.5z"/>
		<path class="st1" d="M20.9,19.5c-0.5,0-1.4,0-1.8,0.4c-0.1,0.1-0.2,0.3-0.2,0.6c0,0.6,0.5,0.8,0.8,0.8c0.7,0,1.1-0.3,1.2-0.4V19.5
			L20.9,19.5z M21,22.5V22c-0.1,0.1-0.8,0.7-1.8,0.7c-1.3,0-2.1-0.9-2.1-2.1c0-2,2.9-2.2,3.6-2.2h0.1c0-0.2,0.1-0.6-0.2-0.8
			c-0.1-0.1-0.3-0.2-0.8-0.2s-1,0.1-1.3,0.3c-0.1,0-0.2,0.1-0.3,0.1l0,0l-0.6-1.3l0,0c0.1,0,0.2-0.1,0.3-0.2
			c0.4-0.2,1.1-0.4,2.1-0.4s1.8,0.3,2.3,0.8c0.6,0.6,0.5,1.3,0.5,2.1v3.8L21,22.5L21,22.5z"/>
	</g>
</g>
</svg>
