<?xml version="1.0" encoding="UTF-8"?>
<svg id="Ebene_1" data-name="Ebene 1" xmlns="http://www.w3.org/2000/svg" width="517.03" height="125.39" viewBox="0 0 517.03 125.39">
  <path d="M149.12,83.89h-47.97v-2.37c7.57-.56,9.73-2.59,9.73-9.06v-32.58c0-7.14-1.36-8.94-7.81-10.07v-2.38h43.68l1.58,12.91-2.37.77c-4.19-7.8-6.8-9.5-15.17-9.85l-10.51-.33v21.83l8.14-.35c6.11-.33,7.69-1.8,9.39-8.25h2.38v20.7h-2.38c-1.81-6.34-3.74-7.91-9.39-8.14l-8.14-.45v15.72c0,7.02,1.36,7.92,11.08,7.92,9.16,0,12.79-2.26,18.1-11.2l2.38.69-2.72,14.47v.02h0Z" style="fill: #f30; stroke-width: 0px;"/>
  <path d="M245.42,83.78v-2.38c4.18-.89,5.42-2.26,5.42-6.21v-.79l-3.39-36.32-20.82,48.09-20.7-47.18-3.07,28.4c-.33,2.37-.43,4.3-.43,5.77,0,5.32,2.15,7.24,8.59,8.25v2.38h-24.2v-2.38c6.32-1.46,8.6-3.5,9.39-8.59l4.75-29.42c.56-4.17.9-6.89.9-8.25,0-3.62-2.48-5.32-8.03-5.44v-2.37h17.19l18.11,40.62,17.76-40.62h17.2v2.37c-5.77.23-7.79,1.58-7.79,5.44,0,.57,0,1.36.09,2.26l3.86,38.25c.44,3.96,1.8,5.21,6.22,5.76v2.38h-21.04v-.02h0Z" style="fill: #f30; stroke-width: 0px;"/>
  <path d="M149.76,102.76c12.39-5.65,17.37-13.84,17.37-23.69l-.34-40.28c-.11-6.43-2.21-8.41-9.96-9.18v-2.33h28.99v2.76c-7.08.67-8.95,2.54-9.18,8.86l-.78,37.29c-.33,16.93-9.63,26.12-24.89,28.1l-1.21-1.54h0Z" style="fill: #f30; stroke-width: 0px;"/>
  <path d="M97.05,27.31C85.01,4.59,57.59-6.01,32.99,3.47,6.44,13.71-6.77,43.54,3.47,70.09c10.25,26.54,40.07,39.76,66.62,29.52.15-.05.28-.11.43-.18v-2.26c-23.84,8.96-50.49-2.95-59.67-26.76C1.62,46.49,13.53,19.61,37.46,10.37c20.46-7.88,43.06-.32,54.96,16.99h-21.92v2.37c7.8,1.01,9.84,3.17,10.06,9.72l.91,31.87L44.07,27.36h-15.6v2.37c8.14,2.49,9.95,5.2,9.95,14.35l-1.37,28.03c-.34,6.67-2.36,8.7-10.16,9.27v2.36h28.02v-2.36c-8.25-.34-10.74-2.72-10.84-9.27l-.68-32.44,38.87,46,3.85-3.17,1.46-43.06c.12-6.44,2.04-8.6,9.5-9.72v-2.42h-.02,0Z" style="fill: #f30; stroke-width: 0px;"/>
  <g>
    <path d="M320.3,83.77h-11.93v-24.33h-22.35v24.33h-11.93V27.38h11.93v22.12h22.35v-22.12h11.93v56.4h0Z" style="fill: #253650; stroke-width: 0px;"/>
    <path d="M349.39,39.86c5.95,0,10.66,1.7,14.14,5.09,3.47,3.4,5.21,8.23,5.21,14.49v5.69h-27.8c.11,3.32,1.09,5.92,2.96,7.82s4.46,2.84,7.78,2.84c2.79,0,5.32-.28,7.58-.83,2.26-.55,4.61-1.41,7.03-2.57v9.08c-2.11,1.05-4.33,1.83-6.68,2.33-2.34.5-5.17.75-8.49.75-4.32,0-8.14-.8-11.45-2.41-3.32-1.61-5.92-4.04-7.82-7.31-1.9-3.26-2.84-7.37-2.84-12.32s.86-9.25,2.57-12.6c1.71-3.34,4.09-5.86,7.15-7.54,3.05-1.68,6.61-2.53,10.66-2.53,0,0,0,.02,0,.02ZM349.47,48.23c-2.26,0-4.15.74-5.65,2.21-1.5,1.48-2.38,3.77-2.65,6.87h16.51c-.05-2.63-.74-4.8-2.05-6.52-1.32-1.71-3.37-2.57-6.16-2.57h0Z" style="fill: #253650; stroke-width: 0px;"/>
    <path d="M394.05,39.78c5.79,0,10.23,1.25,13.31,3.75s4.62,6.33,4.62,11.49v28.75h-8.22l-2.29-5.84h-.32c-1.84,2.32-3.79,4-5.84,5.06-2.05,1.05-4.87,1.58-8.45,1.58-3.84,0-7.03-1.12-9.56-3.36s-3.79-5.67-3.79-10.31,1.61-7.96,4.82-10.15c3.21-2.18,8.03-3.38,14.45-3.59l7.5-.24v-1.9c0-2.26-.59-3.92-1.78-4.98-1.18-1.05-2.83-1.58-4.94-1.58s-4.16.3-6.16.91-4,1.36-6,2.25l-3.87-7.98c2.32-1.21,4.88-2.16,7.7-2.84s5.75-1.03,8.81-1.03h.01ZM395.71,63.95c-3.79.11-6.42.79-7.9,2.05-1.47,1.26-2.21,2.92-2.21,4.98,0,1.79.52,3.07,1.58,3.83,1.05.76,2.42,1.15,4.11,1.15,2.53,0,4.66-.75,6.4-2.25s2.61-3.62,2.61-6.36v-3.55l-4.58.16h0Z" style="fill: #253650; stroke-width: 0px;"/>
    <path d="M462.03,39.86c5.95,0,10.66,1.7,14.14,5.09,3.47,3.4,5.21,8.23,5.21,14.49v5.69h-27.8c.11,3.32,1.09,5.92,2.96,7.82s4.46,2.84,7.78,2.84c2.79,0,5.32-.28,7.58-.83,2.26-.55,4.61-1.41,7.03-2.57v9.08c-2.11,1.05-4.33,1.83-6.68,2.33-2.34.5-5.17.75-8.49.75-4.32,0-8.14-.8-11.45-2.41-3.32-1.61-5.92-4.04-7.82-7.31-1.9-3.26-2.84-7.37-2.84-12.32s.86-9.25,2.57-12.6c1.71-3.34,4.09-5.86,7.15-7.54,3.05-1.68,6.61-2.53,10.66-2.53,0,0,0,.02,0,.02ZM462.11,48.23c-2.26,0-4.15.74-5.65,2.21-1.5,1.48-2.38,3.77-2.65,6.87h16.51c-.05-2.63-.74-4.8-2.05-6.52-1.32-1.71-3.37-2.57-6.16-2.57h0Z" style="fill: #253650; stroke-width: 0px;"/>
    <path d="M513.08,39.86c.58,0,1.26.03,2.05.08.79.05,1.42.13,1.9.24l-.87,11.06c-.37-.1-.91-.2-1.62-.28-.71-.08-1.33-.12-1.86-.12-2,0-3.92.36-5.77,1.07-1.84.71-3.33,1.86-4.46,3.44s-1.7,3.74-1.7,6.48v21.96h-11.77v-43.13h8.93l1.74,7.27h.55c1.26-2.21,3-4.11,5.21-5.69,2.21-1.58,4.77-2.37,7.66-2.37h.01Z" style="fill: #253650; stroke-width: 0px;"/>
    <rect x="422.11" y="27.33" width="11.77" height="56.45" style="fill: #253650; stroke-width: 0px;"/>
  </g>
  <g>
    <path d="M193.01,104.32c2.7,0,4.66.56,5.89,1.69,1.23,1.13,1.85,2.68,1.85,4.65,0,1.18-.25,2.29-.76,3.33-.5,1.04-1.35,1.87-2.55,2.5-1.19.63-2.81.95-4.84.95h-2.07v7.65h-3.72v-20.77s6.2,0,6.2,0ZM192.78,107.4h-2.24v6.95h1.69c1.51,0,2.68-.28,3.51-.83.82-.55,1.24-1.46,1.24-2.72,0-1.14-.34-2-1.02-2.56-.68-.56-1.74-.84-3.17-.84h0Z" style="fill: #253650; stroke-width: 0px;"/>
    <path d="M223.38,114.68c0,2.15-.35,4.03-1.06,5.63-.71,1.6-1.79,2.85-3.24,3.74s-3.28,1.34-5.47,1.34-4.04-.45-5.48-1.34-2.52-2.14-3.23-3.75c-.71-1.61-1.06-3.49-1.06-5.64s.35-4,1.06-5.6,1.78-2.84,3.23-3.72c1.44-.88,3.28-1.32,5.51-1.32s4.01.44,5.45,1.32,2.52,2.12,3.23,3.72c.71,1.6,1.06,3.48,1.06,5.63h0ZM207.76,114.68c0,2.35.47,4.19,1.4,5.53s2.42,2.01,4.45,2.01,3.54-.67,4.47-2.01c.92-1.34,1.38-3.18,1.38-5.53s-.46-4.19-1.37-5.53c-.91-1.34-2.4-2.01-4.45-2.01s-3.53.67-4.47,2.01c-.94,1.34-1.41,3.18-1.41,5.53Z" style="fill: #253650; stroke-width: 0px;"/>
    <path d="M252.38,104.32l-5.38,20.77h-4.1l-3.29-11.93c-.12-.39-.24-.89-.38-1.5s-.26-1.21-.38-1.79c-.12-.58-.19-1.01-.23-1.28-.04.27-.11.69-.22,1.27-.11.57-.23,1.17-.38,1.79-.15.62-.28,1.14-.39,1.57l-3.2,11.87h-4.13l-5.35-20.77h3.72l2.85,11.84c.14.5.27,1.08.39,1.72.13.64.25,1.28.36,1.91.12.63.2,1.18.26,1.64.06-.48.15-1.05.26-1.69.12-.64.24-1.27.38-1.88s.26-1.13.38-1.56l3.26-11.99h3.61l3.32,12.01c.14.43.27.96.41,1.59s.26,1.26.38,1.88c.12.62.2,1.16.26,1.63.06-.48.14-1.04.25-1.66s.23-1.25.36-1.89c.14-.64.27-1.21.41-1.72l2.85-11.84h3.72Z" style="fill: #253650; stroke-width: 0px;"/>
    <path d="M267.04,125.09h-11.81v-20.77h11.81v3.11h-8.09v5.3h7.56v3.11h-7.56v6.11h8.09v3.14Z" style="fill: #253650; stroke-width: 0px;"/>
    <path d="M277.37,104.32c2.73,0,4.76.5,6.06,1.51,1.31,1.01,1.96,2.54,1.96,4.6,0,1.01-.19,1.87-.57,2.59-.38.72-.87,1.31-1.47,1.79s-1.25.86-1.95,1.15l5.96,9.13h-4.19l-4.97-8.2h-3.03v8.2h-3.72v-20.77h5.92ZM277.14,107.43h-1.95v6.4h2.07c1.53,0,2.64-.28,3.33-.83s1.03-1.37,1.03-2.46-.36-1.92-1.09-2.4c-.73-.47-1.86-.71-3.39-.71h0Z" style="fill: #253650; stroke-width: 0px;"/>
    <path d="M302.07,125.09h-11.81v-20.77h11.81v3.11h-8.09v5.3h7.56v3.11h-7.56v6.11h8.09v3.14Z" style="fill: #253650; stroke-width: 0px;"/>
    <path d="M323.48,114.5c0,3.51-.98,6.15-2.94,7.93-1.96,1.77-4.69,2.66-8.2,2.66h-5.85v-20.77h6.46c2.13,0,3.99.39,5.57,1.16,1.58.78,2.8,1.92,3.66,3.42.86,1.5,1.29,3.37,1.29,5.6,0,0,.01,0,.01,0ZM319.58,114.62c0-2.48-.57-4.31-1.7-5.47s-2.78-1.75-4.93-1.75h-2.74v14.57h2.24c4.75,0,7.13-2.45,7.13-7.36h0Z" style="fill: #253650; stroke-width: 0px;"/>
    <path d="M341.72,104.32c2.7,0,4.74.39,6.12,1.16,1.39.78,2.08,2.12,2.08,4.04,0,1.2-.3,2.21-.9,3.03-.6.81-1.46,1.32-2.59,1.51v.15c.76.14,1.44.38,2.07.74.62.36,1.11.87,1.47,1.54.36.67.54,1.55.54,2.63,0,1.88-.66,3.35-1.99,4.39-1.33,1.05-3.15,1.57-5.45,1.57h-7.59v-20.77h6.25-.01ZM342.21,112.78c1.47,0,2.49-.23,3.04-.7s.83-1.15.83-2.07-.33-1.6-1-2.01-1.72-.61-3.16-.61h-2.74v5.38h3.03ZM339.18,115.78v6.2h3.37c1.51,0,2.57-.29,3.16-.87s.89-1.36.89-2.33c0-.89-.31-1.61-.92-2.17-.61-.55-1.71-.83-3.3-.83,0,0-3.2,0-3.2,0Z" style="fill: #253650; stroke-width: 0px;"/>
    <path d="M360.83,113.48l4.74-9.16h4.02l-6.89,12.68v8.09h-3.72v-7.94l-6.89-12.83h4.04l4.71,9.16h0Z" style="fill: #253650; stroke-width: 0px;"/>
    <path d="M379.85,125.09v-20.77h3.72v17.63h8.67v3.14s-12.39,0-12.39,0Z" style="fill: #253650; stroke-width: 0px;"/>
    <path d="M407.66,125.09h-11.81v-20.77h11.81v3.11h-8.09v5.3h7.56v3.11h-7.56v6.11h8.09v3.14Z" style="fill: #253650; stroke-width: 0px;"/>
    <path d="M420.93,107.17c-1.9,0-3.37.68-4.41,2.04s-1.56,3.2-1.56,5.53.48,4.18,1.45,5.51,2.46,1.99,4.48,1.99c.87,0,1.73-.09,2.56-.28.83-.18,1.71-.43,2.62-.74v3.17c-.85.35-1.71.6-2.57.76-.86.15-1.86.23-2.98.23-2.13,0-3.9-.44-5.29-1.32-1.4-.88-2.43-2.12-3.11-3.72s-1.02-3.48-1.02-5.63.38-3.94,1.13-5.54c.76-1.6,1.87-2.86,3.33-3.77,1.46-.91,3.25-1.37,5.37-1.37,1.05,0,2.08.12,3.1.36,1.02.24,1.97.58,2.87,1l-1.28,3.05c-.74-.33-1.5-.63-2.28-.89-.79-.26-1.59-.39-2.4-.39h-.01Z" style="fill: #253650; stroke-width: 0px;"/>
    <path d="M438,125.09h-3.72v-17.63h-5.96v-3.14h15.65v3.14h-5.96v17.63h-.01Z" style="fill: #253650; stroke-width: 0px;"/>
    <path d="M463.6,117.76c0,1.44-.31,2.73-.92,3.88-.61,1.15-1.54,2.07-2.78,2.73-1.24.67-2.81,1-4.71,1-2.7,0-4.74-.7-6.14-2.11-1.4-1.41-2.09-3.26-2.09-5.57v-13.38h3.72v13c0,1.71.39,2.95,1.16,3.72.77.78,1.93,1.16,3.46,1.16,1.61,0,2.78-.42,3.51-1.27.73-.84,1.09-2.06,1.09-3.65v-12.97h3.69v13.46h.01Z" style="fill: #253650; stroke-width: 0px;"/>
    <path d="M474.77,104.32c2.73,0,4.76.5,6.06,1.51,1.31,1.01,1.96,2.54,1.96,4.6,0,1.01-.19,1.87-.57,2.59-.38.72-.87,1.31-1.47,1.79s-1.25.86-1.95,1.15l5.96,9.13h-4.19l-4.97-8.2h-3.03v8.2h-3.72v-20.77h5.92ZM474.54,107.43h-1.95v6.4h2.07c1.53,0,2.64-.28,3.33-.83s1.03-1.37,1.03-2.46-.36-1.92-1.09-2.4c-.73-.47-1.86-.71-3.39-.71h0Z" style="fill: #253650; stroke-width: 0px;"/>
    <path d="M494.7,125.09h-8.73v-2.12l2.5-.93v-14.63l-2.5-.96v-2.12h8.73v2.12l-2.5.96v14.63l2.5.93v2.12Z" style="fill: #253650; stroke-width: 0px;"/>
    <path d="M516.98,114.68c0,2.15-.35,4.03-1.06,5.63s-1.79,2.85-3.24,3.74-3.28,1.34-5.47,1.34-4.04-.45-5.48-1.34-2.52-2.14-3.23-3.75c-.71-1.61-1.06-3.49-1.06-5.64s.35-4,1.06-5.6,1.78-2.84,3.23-3.72c1.44-.88,3.28-1.32,5.51-1.32s4.01.44,5.45,1.32,2.52,2.12,3.23,3.72c.71,1.6,1.06,3.48,1.06,5.63h0ZM501.36,114.68c0,2.35.47,4.19,1.4,5.53s2.42,2.01,4.45,2.01,3.54-.67,4.47-2.01c.92-1.34,1.38-3.18,1.38-5.53s-.46-4.19-1.37-5.53c-.91-1.34-2.4-2.01-4.45-2.01s-3.53.67-4.47,2.01c-.94,1.34-1.41,3.18-1.41,5.53Z" style="fill: #253650; stroke-width: 0px;"/>
  </g>
</svg>
