<svg version="1.2" xmlns="http://www.w3.org/2000/svg" viewBox="0 0 652 294" width="652" height="294">
	<title>PrimalPictures_logo</title>
	<style>
		.s0 { fill: #565554 } 
		.s1 { fill: #e84e0f } 
		.s2 { fill: #a8a8a9 } 
	</style>
	<path class="s0" d="m38.2 118.6h-6.3v18.3h-10.4v-50h21c9.6 0 16.1 4.5 16.1 14.7 0.2 11.2-10.3 17-20.4 17zm0.2-24.3c-2.2 0-4.5 0.2-6.5 0.4v16.9c2.2 0 4.2 0.4 6.5 0.4 5.4 0.2 10.2-4 10.2-9.6-0.3-7-4.4-8.1-10.2-8.1zm54.9 42.6l-15.2-21.6h-2.4v21.6h-10.3v-50h21.9c7.8 0 15.2 4.5 15.2 12.9 0 8.4-5.1 13.6-13.2 14.5l16.9 22.7h-12.9zm-10.2-42.9c-2.5 0-5.1 0.4-7.6 0.4v15.2c2 0.2 4 0.4 6 0.4 5.3 0 10.2-3.1 10.2-8.7 0-5.3-3.7-7.3-8.6-7.3zm28.9 42.9v-50h10.3v50zm63.4 0l-0.2-42.1c-4.5 13.1-9.4 26.1-13.8 39.3h-7.6l-13.1-36.1v38.8h-8.7v-50h14.5l12 34.6 12.1-34.6h13.2v50h-8.4zm50.6 0l-4.7-13.6h-18.5l-4.9 13.6h-8.3l18.7-50.4h10.5l18.9 50.4zm-14-39.1l-6.7 18.5h13.2zm31 39.1v-50h10.3v42.6h21.4v7.4zm69.4-18.3h-6.2v18.3h-10.3v-50h21c9.6 0 16.1 4.5 16.1 14.7 0.1 11.2-10.4 17-20.6 17zm0.2-24.3c-2.2 0-4.5 0.2-6.5 0.4v16.9c2 0.2 4.2 0.4 6.3 0.4 5.4 0.2 10.2-4 10.2-9.6 0-7-4.2-8.1-10-8.1zm26.8 42.6v-50h10.3v50zm41.6 1.3c-14.9 0-24.7-12.1-24.7-26.5 0-14.5 9.8-26.1 24.7-26.1 5.3 0 10.9 2 15.4 4.5v6c-4.2-2-7.8-2.7-12-2.7-10.3 0-17.8 9.1-17.8 19 0 10.2 5.1 18.7 16.1 18.7 4.9 0 11.1-1.3 15.6-2.9v6.3c-4.8 2.6-11.9 3.7-17.3 3.7zm47.8-43.9v42.8h-10.3l-0.2-42.8h-16.3v-7.4h43.3v7.4zm41.9 43.9c-14 0-20.7-6.9-20.7-20.7v-30.6h10.3v29.4c0 8 0.9 15 10.9 15 10 0 10.5-7.1 10.5-15v-29.4h9.1v30.1c0.2 13.9-5.6 21.2-20.1 21.2zm58.3-1.3l-15.2-21.6h-2.5v21.6h-10.3v-50h21.8c7.8 0 15.2 4.5 15.2 12.9 0 8.4-5.1 13.6-13.2 14.5l17 22.7h-12.8zm-10.3-42.9c-2.5 0-5.1 0.4-7.6 0.4v15.2c2 0.2 4 0.4 6 0.4 5.3 0 10.2-3.1 10.2-8.7 0.1-5.3-3.9-7.3-8.6-7.3zm28.8 42.9v-50h34.1v7.4h-23.6v13.6l21 0.2v7.1h-21v14.5l23.9 0.2v7.4zm55.9 1.3c-4.7 0-12-1.3-16.1-3.8v-7.6c3.6 2.4 11.1 4.4 15.2 4.4 4 0 9.4-1.6 9.4-6.5 0-10.3-24.3-7.1-24.3-24.3 0-9.1 8.7-14.5 16.9-14.5 4.5 0 9.8 1.3 13.8 3.6v5.6c-2.2-1.3-7.8-2-10.3-2-4.2-0.2-10.7 1.3-10.7 6.5 0 7.8 24.3 8.2 24.3 23.2 0.3 10-8.8 15.4-18.2 15.4z"/>
	<path class="s1" d="m209.7 189.1l-2 6.7h-4.5l7.6-23.7h5.4l7.6 23.7h-4.7l-2.2-6.7zm6.7-3.2l-1.8-5.8c-0.5-1.5-0.9-3.1-1.3-4.4-0.4 1.5-0.7 3.1-1.1 4.4l-1.8 5.8zm9.9 9.9v-23.7h4.9l6.2 10.2c1.6 2.7 2.9 5.4 4 8-0.4-3.1-0.4-6.2-0.4-9.8v-8.3h4v23.7h-4.5l-6.2-10.5c-1.5-2.5-3.1-5.4-4.2-8.2h-0.1c0.2 3.1 0.2 6.2 0.2 10.2v8.5h-3.9zm27.6-6.7l-2 6.7h-4.5l7.6-23.7h5.4l7.6 23.7h-4.7l-2.2-6.7zm6.9-3.2l-1.8-5.8c-0.5-1.5-0.9-3.1-1.3-4.4-0.4 1.5-0.7 3.1-1.1 4.4l-1.8 5.8zm12.1-10.2h-6.7v-3.6h17.9v3.6h-6.9v20.1h-4.4v-20.1zm22.3 20.5c-6.7 0-10.9-5.1-10.9-12 0-7.3 4.5-12.3 11.2-12.3 6.9 0 10.9 5.3 10.9 12 0.1 7.8-4.8 12.3-11.2 12.3zm0.2-3.4c4.2 0 6.5-3.8 6.5-8.9 0-4.5-2.2-8.7-6.5-8.7-4.4 0-6.5 4.2-6.5 8.9 0 4.7 2.3 8.7 6.5 8.7zm34.4-6.6c-0.2-3.1-0.4-6.7-0.4-10h-0.2c-0.7 2.9-1.8 6.2-2.7 9.1l-3.4 10.3h-3.3l-3.1-10.2c-0.9-3.1-1.8-6.2-2.4-9.2-0.2 3.1-0.2 6.9-0.4 10.2l-0.5 9.6h-4l1.6-23.7h5.6l3.1 9.6c0.9 2.7 1.6 5.6 2.2 8.2h0.2c0.5-2.5 1.5-5.4 2.4-8.3l3.3-9.4h5.6l1.5 23.7h-4.2zm14.2 9.6v-9.8l-7.4-13.8h4.9l2.9 6.2c0.7 1.8 1.5 3.1 2 4.7 0.5-1.5 1.3-2.9 2-4.7l2.9-6.2h4.9l-7.8 13.8v10h-4.4zm12.5 0.4c-1.6 0-2.7-1.3-2.7-2.7 0-1.6 1.1-2.7 2.7-2.7 1.6 0 2.7 1.1 2.7 2.7 0 1.6-1.1 2.7-2.7 2.7zm10.5-20.5h-6.7v-3.6h17.9v3.6h-6.9v20.1h-4.3zm20.3 20.1l-7.6-23.7h4.7l3.3 10.7c0.9 2.9 1.6 5.8 2.4 8.5 0.5-2.9 1.5-5.6 2.4-8.5l3.4-10.9h4.5l-8.2 23.7h-4.9z"/>
	<path class="s2" d="m36.9 179.2c0 2.4-0.9 4.4-2.5 5.6-1.6 1.2-4 2-7.3 2h-2.7v9.4h-2.9v-24.1h6.3c6 0 9.1 2.4 9.1 7.1zm-12.5 5.2h2.5c2.5 0 4.4-0.4 5.4-1.3 1.1-0.7 1.6-2.2 1.6-3.8 0-1.6-0.5-2.7-1.6-3.6-1.1-0.9-2.7-1.1-4.9-1.1h-3.1v9.8zm38.4-0.2c0 3.8-0.9 6.9-2.9 9.1-2 2.2-4.7 3.3-8.2 3.3-3.6 0-6.3-1.1-8.2-3.3-2-2.2-2.9-5.3-2.9-9.2 0-3.9 0.9-7.1 2.9-9.1 1.8-2.2 4.5-3.3 8.2-3.3 3.4 0 6.2 1.1 8.2 3.3 2 2.2 2.9 5.3 2.9 9.2zm-19.2 0c0 3.3 0.7 5.8 2.2 7.4 1.5 1.6 3.4 2.5 6.2 2.5 2.8 0 4.7-0.9 6-2.5 1.5-1.6 2-4.2 2-7.4 0-3.2-0.7-5.8-2-7.4-1.5-1.6-3.4-2.5-6-2.5-2.7 0-4.7 0.9-6.2 2.5-1.5 1.6-2.2 4.2-2.2 7.4zm45.7 12h-2.7l-4.9-16.1c-0.2-0.7-0.5-1.6-0.7-2.7-0.4-1.1-0.4-1.8-0.4-2-0.2 1.5-0.5 3.1-1.1 4.7l-4.7 16.1h-2.7l-6.7-24.1h2.9l4 14.9c0.5 2.2 0.9 4 1.1 5.6 0.4-2 0.7-4 1.3-6l4.4-14.7h2.9l4.5 14.9c0.5 1.6 0.9 3.6 1.3 5.8 0.2-1.6 0.5-3.4 1.3-5.8l3.8-14.9h3.1zm23.7 0h-13.4v-24.1h13.4v2.5h-10.7v7.8h10v2.5h-10v8.9h10.7zm8.2-10v10h-2.9v-24.1h6.7c2.9 0 5.1 0.5 6.5 1.6 1.5 1.1 2.2 2.9 2.2 5.1 0 3.3-1.6 5.4-4.9 6.5l6.5 10.9h-3.3l-5.8-10zm0-2.3h3.8c2 0 3.4-0.4 4.4-1.3 0.9-0.7 1.5-2 1.5-3.6 0-1.6-0.5-2.7-1.5-3.4-0.9-0.5-2.4-0.9-4.5-0.9h-3.6v9.2zm18.1 12.3v-24.1h2.9v24.1zm28.3 0h-3.3l-13.1-20.1h-0.2c0.2 2.4 0.2 4.5 0.2 6.5v13.8h-2.5v-24.3h3.3l13.2 20.1h0.2c0-0.4 0-1.3-0.2-2.9 0-1.6-0.2-2.7 0-3.4v-13.8h2.5v24.1zm17.4-12.5h8.2v11.6c-1.3 0.4-2.5 0.7-4 0.9-1.3 0.2-2.9 0.4-4.5 0.4-3.6 0-6.5-1.1-8.5-3.3-2-2.2-3.1-5.3-3.1-9.1 0-2.5 0.5-4.7 1.5-6.5 1.1-1.8 2.5-3.3 4.4-4.4 1.9-1.1 4.2-1.5 6.7-1.5 2.5 0 4.9 0.5 7.3 1.5l-1.1 2.5c-2.2-0.9-4.4-1.5-6.3-1.5-2.9 0-5.3 0.9-6.9 2.7-1.6 1.8-2.5 4.2-2.5 7.3 0 3.3 0.7 5.8 2.4 7.4 1.6 1.6 4 2.5 7.1 2.5 1.6 0 3.3-0.2 4.9-0.5v-7.8h-5.4v-2.4h-0.2z"/>
</svg>
