<?xml version="1.0" encoding="UTF-8"?>
<svg width="876.85" height="369.18" version="1.1" viewBox="0 0 876.85 369.18" xml:space="preserve" xmlns="http://www.w3.org/2000/svg"><defs><clipPath id="clipPath18"><path d="m0 0h657.64v276.88h-657.64z"/></clipPath></defs><g transform="matrix(1.3333 0 0 -1.3333 0 369.18)"><g clip-path="url(#clipPath18)"><g transform="translate(210.46 163.08)"><path d="m0 0c-3.169 1.201-5.976 2.721-8.423 4.555-2.448 1.836-4.403 4.021-5.866 6.555-1.465 2.534-2.195 5.528-2.195 8.981 0 3.494 0.753 6.653 2.26 9.471 1.508 2.818 3.496 5.21 5.966 7.177 2.467 1.966 5.265 3.483 8.389 4.555 3.124 1.071 6.325 1.606 9.603 1.606 2.533 0 5.024-0.262 7.471-0.786s4.73-1.301 6.851-2.327c2.119-1.027 4.04-2.306 5.767-3.834 1.726-1.531 3.179-3.3 4.358-5.31 0.568-0.918 0.711-1.858 0.426-2.818-0.284-0.962-0.731-1.749-1.342-2.36-0.7-0.655-1.629-1.049-2.786-1.18-1.158-0.13-2.285 0.218-3.375 1.049-1.269 1.397-2.524 2.589-3.771 3.572-1.244 0.984-2.566 1.78-3.964 2.392-1.4 0.611-2.875 1.059-4.425 1.344-1.551 0.283-3.244 0.426-5.079 0.426-2.011 0-3.988-0.284-5.933-0.852s-3.692-1.388-5.243-2.459c-1.551-1.07-2.818-2.414-3.801-4.029-0.984-1.619-1.475-3.475-1.475-5.572 0-2.229 0.589-4.087 1.769-5.572 1.181-1.485 2.698-2.731 4.555-3.735 1.858-1.007 3.943-1.836 6.26-2.491 2.316-0.657 4.588-1.246 6.817-1.771 3.188-0.961 6.303-2.064 9.34-3.309 3.037-1.246 5.735-2.776 8.096-4.588 2.358-1.815 4.249-3.999 5.669-6.555 1.419-2.556 2.13-5.628 2.13-9.21 0-3.758-0.753-7.2-2.26-10.323-1.508-3.125-3.553-5.8-6.129-8.029-2.579-2.229-5.583-3.966-9.014-5.211-3.43-1.245-7.067-1.868-10.912-1.868-3.146 0-6.185 0.417-9.111 1.246-2.929 0.829-5.616 1.967-8.063 3.407-2.447 1.442-4.599 3.147-6.456 5.112-1.858 1.967-3.267 4.065-4.228 6.294-0.744 1.615-0.863 3.003-0.359 4.162 0.501 1.158 1.277 2.021 2.326 2.589 1.266 0.612 2.425 0.72 3.474 0.328 1.049-0.393 2.141-1.311 3.277-2.754 0.874-1.616 1.988-3.081 3.343-4.39 1.354-1.312 2.872-2.426 4.556-3.344 1.681-0.918 3.507-1.616 5.472-2.098 1.966-0.48 4.02-0.719 6.162-0.719 2.185 0 4.358 0.326 6.521 0.981 2.163 0.656 4.108 1.617 5.834 2.885 1.726 1.266 3.123 2.84 4.195 4.719 1.071 1.878 1.606 4.064 1.606 6.554 0 2.316-0.548 4.261-1.638 5.833-1.094 1.576-2.502 2.896-4.228 3.966-1.727 1.071-3.693 1.978-5.899 2.722-2.208 0.742-4.425 1.44-6.653 2.097-3.409 0.743-6.697 1.713-9.865 2.916" fill="#218e8a"/></g><g transform="translate(271 126.28)"><path d="m0 0c0-1.354-0.482-2.502-1.442-3.44-0.962-0.941-2.121-1.41-3.475-1.41-1.355 0-2.512 0.469-3.474 1.41-0.962 0.938-1.441 2.086-1.441 3.44v74.198c0 1.399 0.479 2.556 1.441 3.474s2.119 1.377 3.474 1.377c1.354 0 2.513-0.459 3.475-1.377 0.96-0.918 1.442-2.075 1.442-3.474z" fill="#218e8a"/></g><g transform="translate(297.93 181.6)"><path d="m0 0-7.473-55.78c-0.219-1.354-0.863-2.436-1.932-3.245-1.072-0.808-2.284-1.103-3.639-0.884-1.354 0.218-2.448 0.852-3.277 1.9-0.831 1.049-1.137 2.25-0.918 3.605l9.898 73.478c0.218 1.31 0.786 2.337 1.704 3.08 0.218 0.175 0.448 0.338 0.688 0.492 0.24 0.152 0.513 0.294 0.82 0.426 1.223 0.524 2.458 0.534 3.703 0.033 1.246-0.504 2.152-1.388 2.719-2.656l25.761-63.055 25.628 63.055c0.567 1.268 1.452 2.141 2.654 2.623 1.202 0.479 2.435 0.479 3.703 0l0.524-0.263c0.743-0.35 1.367-0.852 1.87-1.507 0.501-0.656 0.796-1.421 0.884-2.294l9.373-73.543c0.174-1.355-0.164-2.556-1.016-3.604-0.853-1.049-1.955-1.662-3.311-1.836-1.353-0.175-2.578 0.142-3.67 0.95-1.092 0.809-1.704 1.891-1.835 3.245l-7.079 55.583-23.137-56.631-0.198-0.459c-0.391-0.918-0.972-1.629-1.736-2.131-0.765-0.503-1.584-0.797-2.458-0.884-1.005-0.087-1.956 0.131-2.851 0.655-0.896 0.524-1.563 1.312-1.999 2.36z" fill="#218e8a"/></g><g transform="translate(406.74 195.5)"><path d="m0 0v-69.217c0-1.354-0.48-2.502-1.441-3.441-0.962-0.94-2.142-1.409-3.54-1.409-1.399 0-2.535 0.469-3.408 1.409-0.875 0.939-1.311 2.087-1.311 3.441v69.217h-19.335c-1.401 0-2.569 0.479-3.507 1.441-0.941 0.961-1.41 2.119-1.41 3.474 0 1.399 0.469 2.567 1.41 3.507 0.938 0.94 2.106 1.41 3.507 1.41h48.765c1.398 0 2.566-0.482 3.507-1.443 0.939-0.961 1.409-2.14 1.409-3.539s-0.47-2.557-1.409-3.475c-0.941-0.916-2.109-1.375-3.507-1.375z" fill="#218e8a"/></g><g transform="translate(451.5 126.28)"><path d="m0 0c0-1.354-0.482-2.502-1.442-3.44-0.961-0.941-2.121-1.41-3.474-1.41-1.355 0-2.513 0.469-3.475 1.41-0.962 0.938-1.441 2.086-1.441 3.44v74.198c0 1.399 0.479 2.556 1.441 3.474s2.12 1.377 3.475 1.377c1.353 0 2.513-0.459 3.474-1.377 0.96-0.918 1.442-2.075 1.442-3.474z" fill="#218e8a"/></g><g transform="translate(537.11 189.86)"><path d="m0 0c0-1.312-0.482-2.449-1.442-3.409-0.962-1.005-2.121-1.508-3.475-1.508-1.355 0-2.513 0.459-3.475 1.377-3.276 3.277-6.925 5.712-10.945 7.308-4.021 1.595-8.15 2.393-12.388 2.393-4.501 0-8.741-0.852-12.715-2.556-3.978-1.705-7.441-4.031-10.391-6.981-2.948-2.95-5.275-6.414-6.98-10.389-1.705-3.977-2.556-8.238-2.556-12.781 0-4.414 0.819-8.598 2.459-12.553 1.637-3.955 3.91-7.429 6.816-10.421 2.904-2.994 6.335-5.387 10.29-7.178 3.955-1.792 8.27-2.686 12.946-2.686 4.281 0 8.39 0.753 12.322 2.26 3.933 1.507 7.603 3.921 11.013 7.243 0.917 0.918 2.064 1.377 3.441 1.377 1.375 0 2.523-0.438 3.439-1.312 1.006-0.962 1.497-2.13 1.476-3.506-0.022-1.377-0.492-2.523-1.41-3.441-4.238-4.239-8.969-7.374-14.19-9.406-5.222-2.033-10.607-3.048-16.157-3.048-5.856 0-11.35 1.115-16.484 3.342-5.136 2.229-9.625 5.266-13.47 9.112-3.846 3.845-6.872 8.356-9.078 13.535-2.208 5.178-3.31 10.694-3.31 16.551 0 3.758 0.48 7.417 1.441 10.978 0.962 3.562 2.328 6.926 4.096 10.095 1.771 3.167 3.923 6.083 6.457 8.75 2.534 2.664 5.385 4.958 8.555 6.881 3.167 1.924 6.597 3.419 10.29 4.491 3.693 1.07 7.613 1.606 11.766 1.606 5.505 0 10.857-1.06 16.058-3.179 5.2-2.121 9.918-5.299 14.159-9.538 0.96-0.961 1.442-2.097 1.442-3.407" fill="#218e8a"/></g><g transform="translate(562.9 163.08)"><path d="m0 0c-3.169 1.201-5.977 2.721-8.424 4.555-2.447 1.836-4.402 4.021-5.865 6.555-1.466 2.534-2.195 5.528-2.195 8.981 0 3.494 0.753 6.653 2.26 9.471 1.508 2.818 3.496 5.21 5.965 7.177 2.468 1.966 5.266 3.483 8.39 4.555 3.124 1.071 6.324 1.606 9.602 1.606 2.534 0 5.025-0.262 7.472-0.786s4.73-1.301 6.851-2.327c2.119-1.027 4.04-2.306 5.767-3.834 1.726-1.531 3.179-3.3 4.358-5.31 0.568-0.918 0.711-1.858 0.426-2.818-0.285-0.962-0.731-1.749-1.342-2.36-0.701-0.655-1.629-1.049-2.787-1.18-1.158-0.13-2.284 0.218-3.374 1.049-1.269 1.397-2.525 2.589-3.771 3.572-1.244 0.984-2.566 1.78-3.964 2.392-1.4 0.611-2.875 1.059-4.425 1.344-1.551 0.283-3.244 0.426-5.08 0.426-2.01 0-3.987-0.284-5.932-0.852s-3.693-1.388-5.244-2.459c-1.551-1.07-2.817-2.414-3.8-4.029-0.984-1.619-1.476-3.475-1.476-5.572 0-2.229 0.59-4.087 1.77-5.572s2.698-2.731 4.555-3.735c1.858-1.007 3.943-1.836 6.259-2.491 2.317-0.657 4.589-1.246 6.818-1.771 3.188-0.961 6.303-2.064 9.34-3.309 3.037-1.246 5.735-2.776 8.095-4.588 2.359-1.815 4.249-3.999 5.67-6.555 1.419-2.556 2.13-5.628 2.13-9.21 0-3.758-0.753-7.2-2.261-10.323-1.508-3.125-3.552-5.8-6.129-8.029-2.579-2.229-5.582-3.966-9.013-5.211-3.43-1.245-7.068-1.868-10.913-1.868-3.145 0-6.184 0.417-9.111 1.246-2.928 0.829-5.615 1.967-8.062 3.407-2.448 1.442-4.599 3.147-6.456 5.112-1.859 1.967-3.267 4.065-4.228 6.294-0.744 1.615-0.863 3.003-0.359 4.162 0.501 1.158 1.277 2.021 2.325 2.589 1.266 0.612 2.426 0.72 3.474 0.328 1.049-0.393 2.141-1.311 3.277-2.754 0.875-1.616 1.989-3.081 3.344-4.39 1.353-1.312 2.872-2.426 4.555-3.344 1.682-0.918 3.507-1.616 5.473-2.098 1.966-0.48 4.019-0.719 6.162-0.719 2.185 0 4.358 0.326 6.52 0.981 2.164 0.656 4.108 1.617 5.835 2.885 1.726 1.266 3.123 2.84 4.195 4.719 1.07 1.878 1.605 4.064 1.605 6.554 0 2.316-0.547 4.261-1.637 5.833-1.094 1.576-2.502 2.896-4.228 3.966-1.727 1.071-3.693 1.978-5.9 2.722-2.207 0.742-4.425 1.44-6.653 2.097-3.409 0.743-6.696 1.713-9.864 2.916" fill="#218e8a"/></g><g transform="translate(114.58 105.37)"><path d="m0 0c-27.151 0-51.45 19.234-56.821 46.86-6.091 31.344 14.452 61.797 45.792 67.89 7.608 1.478 15.284 1.433 22.812-0.13 4.113-0.854 6.753-4.882 5.899-8.992-0.855-4.112-4.879-6.753-8.992-5.899-5.542 1.153-11.201 1.183-16.816 0.092-23.112-4.492-38.258-26.948-33.767-50.057 4.494-23.111 26.952-38.255 50.061-33.765 23.109 4.491 38.257 26.948 33.764 50.058-1.079 5.553-3.193 10.735-6.282 15.402-2.317 3.502-1.357 8.219 2.144 10.538 3.502 2.318 8.221 1.357 10.538-2.145 4.197-6.34 7.064-13.37 8.528-20.893 6.093-31.343-14.449-61.798-45.791-67.889-3.715-0.722-7.418-1.07-11.069-1.07" fill="#218e8a"/></g><g transform="translate(114.55 141.44)"><path d="m0 0c-1.994 0-3.983 0.779-5.476 2.326l-16.292 16.903c-2.914 3.023-2.826 7.838 0.198 10.75 3.024 2.915 7.838 2.825 10.752-0.196l16.291-16.903c2.915-3.023 2.825-7.836-0.197-10.75-1.475-1.423-3.378-2.13-5.276-2.13" fill="#f36c21"/></g><g transform="translate(114.55 141.44)"><path d="m0 0c-1.947 0-3.895 0.744-5.38 2.23-2.968 2.971-2.965 7.785 5e-3 10.752l42.022 41.984c2.97 2.968 7.787 2.966 10.753-6e-3 2.969-2.97 2.966-7.785-6e-3 -10.752l-42.019-41.983c-1.486-1.484-3.431-2.225-5.375-2.225" fill="#e12b63"/></g><g transform="translate(196.02 72.637)"><path d="m0 0c0.417-0.967 0.987-1.817 1.709-2.545 0.722-0.73 1.569-1.309 2.545-1.734 0.976-0.427 2.021-0.64 3.137-0.64 1.131 0 2.185 0.213 3.161 0.64 0.974 0.425 1.823 1.004 2.545 1.734 0.722 0.728 1.287 1.578 1.697 2.545 0.411 0.967 0.615 2.001 0.615 3.101 0 1.114-0.204 2.158-0.615 3.133-0.41 0.977-0.975 1.827-1.697 2.548-0.722 0.722-1.571 1.289-2.545 1.708-0.976 0.418-2.03 0.628-3.161 0.628-1.116 0-2.161-0.21-3.137-0.628-0.976-0.419-1.823-0.986-2.545-1.708-0.722-0.721-1.292-1.571-1.709-2.548-0.418-0.975-0.628-2.019-0.628-3.133 0-1.1 0.21-2.134 0.628-3.101m-0.652 11.609c1.049 1.001 2.263 1.787 3.64 2.362 1.377 0.574 2.845 0.862 4.403 0.862 1.624 0 3.144-0.308 4.563-0.922 1.418-0.615 2.656-1.452 3.714-2.509 1.058-1.059 1.894-2.301 2.509-3.728 0.615-1.426 0.922-2.951 0.922-4.573 0-1.625-0.307-3.146-0.922-4.564-0.615-1.42-1.451-2.662-2.509-3.727-1.058-1.066-2.296-1.905-3.714-2.52-1.419-0.615-2.939-0.923-4.563-0.923-1.558 0-3.026 0.282-4.403 0.848s-2.591 1.349-3.64 2.348v-9.396c0-0.506-0.181-0.938-0.542-1.29s-0.795-0.529-1.303-0.529-0.943 0.177-1.304 0.529-0.541 0.784-0.541 1.29v27.845c0 0.525 0.18 0.959 0.541 1.304 0.361 0.344 0.796 0.517 1.304 0.517s0.942-0.173 1.303-0.517c0.361-0.345 0.542-0.779 0.542-1.304z" fill="#3b1650"/></g><g transform="translate(221.57 72.637)"><path d="m0 0c0.418-0.967 0.987-1.817 1.71-2.545 0.721-0.73 1.57-1.309 2.545-1.734 0.976-0.427 2.021-0.64 3.137-0.64 1.131 0 2.184 0.213 3.16 0.64 0.976 0.425 1.824 1.004 2.546 1.734 0.722 0.728 1.288 1.578 1.697 2.545 0.411 0.967 0.616 2.001 0.616 3.101 0 1.114-0.205 2.158-0.616 3.133-0.409 0.977-0.975 1.827-1.697 2.548-0.722 0.722-1.57 1.289-2.546 1.708-0.976 0.418-2.029 0.628-3.16 0.628-1.116 0-2.161-0.21-3.137-0.628-0.975-0.419-1.824-0.986-2.545-1.708-0.723-0.721-1.292-1.571-1.71-2.548-0.417-0.975-0.627-2.019-0.627-3.133 0-1.1 0.21-2.134 0.627-3.101m-3.418 7.674c0.614 1.427 1.455 2.669 2.52 3.728 1.066 1.057 2.313 1.894 3.739 2.509 1.427 0.614 2.943 0.922 4.551 0.922 1.623 0 3.144-0.308 4.563-0.922 1.418-0.615 2.656-1.452 3.714-2.509 1.057-1.059 1.894-2.301 2.509-3.728 0.614-1.426 0.922-2.951 0.922-4.573 0-1.625-0.308-3.146-0.922-4.564-0.615-1.42-1.452-2.662-2.509-3.727-1.058-1.066-2.296-1.905-3.714-2.52-1.419-0.615-2.94-0.923-4.563-0.923-1.608 0-3.124 0.308-4.551 0.923-1.426 0.615-2.673 1.454-3.739 2.52-1.065 1.065-1.906 2.307-2.52 3.727-0.615 1.418-0.923 2.939-0.923 4.564 0 1.622 0.308 3.147 0.923 4.573" fill="#3b1650"/></g><g transform="translate(263.06 70.325)"><path d="m0 0 1.525-3.468c0.147-0.36 0.209-0.713 0.184-1.058-0.024-0.344-0.151-0.648-0.381-0.91-0.017-0.017-0.033-0.032-0.049-0.049l-0.098-0.098c-0.017-0.032-0.042-0.058-0.075-0.073-0.098-0.083-0.212-0.15-0.343-0.198-0.083-0.049-0.157-0.082-0.221-0.099-0.214-0.064-0.436-0.089-0.666-0.072h-0.221c-0.033 0.014-0.057 0.023-0.073 0.023s-0.033 9e-3 -0.049 0.025l-0.05 0.024h-0.073v0.026h-0.074l-0.049 0.049h-0.026l-0.024 0.024c-0.049 0.017-0.098 0.034-0.148 0.048-0.048 0.05-0.106 0.092-0.172 0.124l-0.073 0.049c-0.017 0.018-0.033 0.032-0.049 0.05l-0.098 0.098-0.051 0.025c-0.147 0.163-0.261 0.353-0.343 0.566l-3.42 7.649-3.418-7.649c-0.115-0.248-0.247-0.435-0.394-0.566-0.147-0.164-0.328-0.296-0.541-0.394-0.114-0.065-0.221-0.107-0.32-0.123-0.131-0.034-0.23-0.048-0.295-0.048h-0.27c-0.066 0-0.123 4e-3 -0.172 0.012-0.051 7e-3 -0.108 0.02-0.173 0.036l-0.05 0.024c-0.032 0-0.057 9e-3 -0.073 0.026-0.016 0-0.057 0.015-0.123 0.049-0.033 0-0.049 9e-3 -0.049 0.024-0.213 0.098-0.394 0.221-0.541 0.369-0.165 0.165-0.296 0.361-0.394 0.591l-8.658 19.407c-0.114 0.246-0.176 0.491-0.185 0.739-8e-3 0.245 0.033 0.477 0.124 0.7 0.089 0.222 0.217 0.425 0.381 0.615 0.164 0.188 0.36 0.33 0.59 0.429 0.475 0.214 0.948 0.222 1.414 0.025 0.468-0.196 0.808-0.533 1.022-1.007l7.01-16.014 3.123 7.209-3.246 7.304c-0.116 0.246-0.177 0.491-0.185 0.739-8e-3 0.245 0.033 0.477 0.123 0.7 0.089 0.222 0.217 0.425 0.381 0.615 0.164 0.188 0.361 0.33 0.59 0.429 0.476 0.214 0.947 0.222 1.415 0.025 0.468-0.196 0.807-0.533 1.02-1.007l1.87-4.305 1.893 4.305c0.214 0.474 0.555 0.811 1.022 1.007 0.467 0.197 0.939 0.18 1.414-0.048 0.459-0.214 0.783-0.558 0.971-1.034 0.189-0.476 0.176-0.95-0.036-1.426l-3.271-7.33 3.148-7.183 6.985 16.014c0.213 0.474 0.554 0.811 1.021 1.007 0.468 0.197 0.938 0.18 1.414-0.048 0.46-0.214 0.783-0.558 0.972-1.034 0.188-0.476 0.176-0.95-0.036-1.426l-8.659-19.407c-0.098-0.213-0.221-0.395-0.369-0.542-0.017-0.017-0.033-0.032-0.049-0.049l-0.098-0.098c-0.017-0.032-0.042-0.058-0.075-0.073-0.131-0.115-0.278-0.198-0.442-0.247-0.033-0.016-0.073-0.033-0.122-0.05-0.214-0.064-0.436-0.089-0.666-0.072h-0.221c-0.033 0.014-0.057 0.023-0.073 0.023s-0.033 9e-3 -0.049 0.025c-0.017 0-0.033 9e-3 -0.05 0.024h-0.073v0.026h-0.074l-0.049 0.049h-0.026l-0.024 0.024c-0.049 0.017-0.098 0.034-0.148 0.048-0.065 0.05-0.122 0.092-0.172 0.124-0.017 0.018-0.041 0.033-0.073 0.049-0.017 0.018-0.033 0.032-0.049 0.05l-0.098 0.098-0.051 0.025c-0.196 0.261-0.319 0.566-0.368 0.91-0.033 0.378 0.041 0.754 0.221 1.132z" fill="#3b1650"/></g><g transform="translate(293.78 77.164)"><path d="m0 0c-0.131 0.95-0.43 1.841-0.898 2.669-0.467 0.826-1.049 1.544-1.747 2.152-0.696 0.607-1.496 1.083-2.397 1.427-0.902 0.344-1.862 0.517-2.878 0.517-1.018 0-1.972-0.178-2.866-0.53-0.895-0.352-1.685-0.833-2.374-1.439-0.689-0.607-1.259-1.324-1.709-2.152-0.452-0.829-0.742-1.71-0.874-2.644zm-15.62-3.1c0.148-0.919 0.448-1.774 0.898-2.571 0.451-0.794 1.017-1.483 1.698-2.064 0.679-0.583 1.45-1.038 2.312-1.367 0.86-0.327 1.774-0.491 2.742-0.491 1.213 0 2.296 0.222 3.247 0.664s1.729 1.033 2.337 1.77c0.328 0.263 0.648 0.414 0.959 0.457 0.311 0.041 0.607 0.019 0.885-0.062 0.361-0.147 0.649-0.404 0.861-0.762 0.247-0.346 0.361-0.751 0.345-1.219-0.017-0.468-0.238-0.889-0.664-1.267-0.427-0.441-0.906-0.851-1.439-1.229s-1.127-0.705-1.783-0.985c-0.656-0.277-1.378-0.5-2.165-0.664-0.787-0.162-1.648-0.246-2.583-0.246-1.623 0-3.148 0.304-4.575 0.91-1.427 0.607-2.672 1.439-3.739 2.498-1.065 1.057-1.905 2.3-2.521 3.726-0.614 1.427-0.922 2.951-0.922 4.576 0 1.622 0.308 3.148 0.922 4.573 0.616 1.427 1.456 2.669 2.521 3.729 1.067 1.057 2.312 1.894 3.739 2.509 1.427 0.614 2.952 0.922 4.575 0.922 1.607 0 3.124-0.306 4.551-0.912s2.669-1.439 3.727-2.496c1.057-1.057 1.897-2.291 2.52-3.703 0.624-1.409 0.943-2.919 0.96-4.524 0-0.526-0.169-0.952-0.504-1.278-0.336-0.33-0.775-0.494-1.316-0.494z" fill="#3b1650"/></g><g transform="translate(304.8 83.977)"><path d="m0 0c1.099 1.083 2.373 1.935 3.825 2.558 1.451 0.624 3.004 0.935 4.661 0.935h0.148c0.606 0 1.078-0.177 1.414-0.529 0.336-0.353 0.504-0.792 0.504-1.316 0-0.525-0.189-0.961-0.566-1.304-0.377-0.344-0.828-0.517-1.352-0.517h-0.148c-1.165 0-2.259-0.226-3.284-0.677-1.025-0.45-1.922-1.061-2.693-1.832-0.771-0.77-1.382-1.68-1.832-2.73-0.452-1.049-0.677-2.163-0.677-3.344v-9.077c0-0.508-0.176-0.943-0.528-1.305-0.354-0.36-0.793-0.54-1.317-0.54-0.508 0-0.943 0.18-1.303 0.54-0.361 0.362-0.541 0.797-0.541 1.305v19.481c0 0.524 0.18 0.967 0.541 1.329 0.36 0.36 0.802 0.54 1.328 0.54 0.524 0 0.96-0.18 1.303-0.54 0.345-0.362 0.517-0.805 0.517-1.329z" fill="#3b1650"/></g><g transform="translate(335.47 77.164)"><path d="m0 0c-0.132 0.95-0.431 1.841-0.897 2.669-0.468 0.826-1.05 1.544-1.748 2.152-0.697 0.607-1.497 1.083-2.397 1.427-0.902 0.344-1.862 0.517-2.878 0.517-1.018 0-1.972-0.178-2.866-0.53-0.895-0.352-1.685-0.833-2.374-1.439-0.689-0.607-1.259-1.324-1.709-2.152-0.452-0.829-0.742-1.71-0.874-2.644zm-15.62-3.1c0.148-0.919 0.448-1.774 0.898-2.571 0.451-0.794 1.017-1.483 1.698-2.064 0.679-0.583 1.45-1.038 2.312-1.367 0.86-0.327 1.774-0.491 2.742-0.491 1.213 0 2.296 0.222 3.247 0.664 0.952 0.442 1.73 1.033 2.337 1.77 0.327 0.263 0.648 0.414 0.958 0.457 0.313 0.041 0.608 0.019 0.887-0.062 0.36-0.147 0.647-0.404 0.86-0.762 0.246-0.346 0.361-0.751 0.345-1.219-0.018-0.468-0.238-0.889-0.664-1.267-0.427-0.441-0.906-0.851-1.439-1.229s-1.127-0.705-1.783-0.985c-0.657-0.277-1.379-0.5-2.165-0.664-0.787-0.162-1.649-0.246-2.583-0.246-1.623 0-3.148 0.304-4.575 0.91-1.427 0.607-2.672 1.439-3.739 2.498-1.066 1.057-1.905 2.3-2.521 3.726-0.614 1.427-0.922 2.951-0.922 4.576 0 1.622 0.308 3.148 0.922 4.573 0.616 1.427 1.455 2.669 2.521 3.729 1.067 1.057 2.312 1.894 3.739 2.509 1.427 0.614 2.952 0.922 4.575 0.922 1.607 0 3.124-0.306 4.55-0.912 1.428-0.606 2.669-1.439 3.728-2.496 1.057-1.057 1.896-2.291 2.52-3.703 0.623-1.409 0.943-2.919 0.96-4.524 0-0.526-0.169-0.952-0.504-1.278-0.337-0.33-0.775-0.494-1.316-0.494z" fill="#3b1650"/></g><g transform="translate(345.71 72.637)"><path d="m0 0c0.419-0.967 0.988-1.817 1.711-2.545 0.721-0.73 1.569-1.305 2.545-1.724 0.975-0.418 2.02-0.625 3.137-0.625 1.13 0 2.183 0.207 3.16 0.625 0.975 0.419 1.824 0.994 2.546 1.724 0.721 0.728 1.287 1.578 1.697 2.545s0.615 2.001 0.615 3.101c0 1.114-0.205 2.158-0.615 3.133-0.41 0.977-0.976 1.827-1.697 2.548-0.722 0.722-1.571 1.285-2.546 1.697-0.977 0.409-2.03 0.616-3.16 0.616-1.117 0-2.162-0.207-3.137-0.616-0.976-0.412-1.824-0.975-2.545-1.697-0.723-0.721-1.292-1.571-1.711-2.548-0.417-0.975-0.626-2.019-0.626-3.133 0-1.1 0.209-2.134 0.626-3.101m19.101-6.519c0-0.507-0.181-0.939-0.541-1.292-0.362-0.352-0.796-0.527-1.304-0.527-0.526 0-0.964 0.175-1.317 0.527-0.352 0.353-0.528 0.785-0.528 1.292v1.082c-1.05-0.984-2.259-1.758-3.629-2.325-1.369-0.563-2.832-0.847-4.389-0.847-1.609 0-3.124 0.307-4.552 0.922-1.426 0.616-2.672 1.453-3.738 2.509-1.066 1.057-1.906 2.3-2.521 3.726-0.615 1.429-0.923 2.944-0.923 4.553 0 1.622 0.308 3.147 0.923 4.573 0.615 1.427 1.455 2.669 2.521 3.728 1.066 1.057 2.312 1.894 3.738 2.509 1.428 0.614 2.943 0.922 4.552 0.922 1.557 0 3.02-0.284 4.389-0.85 1.37-0.566 2.579-1.34 3.629-2.323v9.666c0 0.526 0.176 0.959 0.528 1.303 0.353 0.346 0.791 0.517 1.317 0.517 0.508 0 0.942-0.171 1.304-0.517 0.36-0.344 0.541-0.777 0.541-1.303z" fill="#3b1650"/></g><g transform="translate(384.56 75.725)"><path d="m0 0c0-1.103 0.21-2.136 0.628-3.104 0.418-0.97 0.987-1.82 1.709-2.55 0.722-0.733 1.574-1.307 2.559-1.726 0.984-0.418 2.032-0.627 3.148-0.627 1.131 0 2.185 0.209 3.161 0.627 0.975 0.419 1.823 0.993 2.545 1.726 0.722 0.73 1.287 1.58 1.697 2.55 0.41 0.968 0.615 2.001 0.615 3.104 0 1.116-0.205 2.162-0.615 3.141-0.41 0.975-0.975 1.825-1.697 2.548-0.722 0.722-1.57 1.294-2.545 1.713-0.976 0.418-2.03 0.628-3.161 0.628-1.116 0-2.161-0.21-3.136-0.628-0.975-0.419-1.829-0.991-2.559-1.713-0.729-0.723-1.308-1.575-1.734-2.561-0.377-0.903-0.582-1.864-0.615-2.883zm0-9.619c0-0.504-0.18-0.934-0.541-1.281-0.36-0.351-0.795-0.526-1.304-0.526-0.508 0-0.942 0.175-1.303 0.528-0.361 0.352-0.541 0.784-0.541 1.292v27.844c0 0.526 0.18 0.959 0.541 1.303 0.361 0.346 0.795 0.517 1.303 0.517 0.509 0 0.944-0.171 1.304-0.517 0.361-0.344 0.541-0.777 0.541-1.303v-9.691c1.001 0.943 2.165 1.693 3.493 2.246 1.427 0.617 2.944 0.927 4.551 0.927 1.623 0 3.144-0.308 4.562-0.923 1.418-0.612 2.657-1.449 3.714-2.504 1.059-1.058 1.895-2.298 2.509-3.724 0.615-1.424 0.923-2.949 0.923-4.569 0-1.606-0.308-3.122-0.923-4.546-0.614-1.427-1.45-2.667-2.509-3.724-1.057-1.057-2.296-1.892-3.714-2.506s-2.939-0.921-4.562-0.921c-1.607 0-3.124 0.301-4.551 0.903-1.328 0.572-2.492 1.328-3.493 2.274z" fill="#3b1650"/></g><g transform="translate(416.39 70.424)"><path d="m0 0 7.034 15.915c0.214 0.475 0.555 0.812 1.023 1.008 0.465 0.196 0.937 0.18 1.413-0.049 0.459-0.214 0.783-0.558 0.971-1.033 0.189-0.477 0.176-0.95-0.036-1.427l-12.546-28.016c-0.229-0.475-0.577-0.808-1.045-0.997-0.467-0.187-0.938-0.174-1.414 0.036-0.475 0.232-0.774 0.576-0.898 1.035-0.123 0.459-0.069 0.926 0.16 1.402l3.42 7.749-8.389 18.791c-0.114 0.246-0.175 0.491-0.184 0.739-8e-3 0.245 0.033 0.478 0.124 0.701 0.09 0.221 0.217 0.424 0.381 0.615 0.164 0.187 0.36 0.33 0.59 0.428 0.475 0.214 0.948 0.222 1.414 0.026 0.467-0.196 0.808-0.533 1.022-1.008z" fill="#3b1650"/></g><g transform="translate(447.15 79.931)"><path d="m0 0c-1.188 0.45-2.242 1.021-3.16 1.708-0.92 0.689-1.653 1.51-2.201 2.46-0.55 0.952-0.825 2.075-0.825 3.371 0 1.312 0.283 2.496 0.849 3.553 0.566 1.059 1.311 1.956 2.237 2.695 0.927 0.736 1.977 1.307 3.15 1.708 1.172 0.401 2.373 0.604 3.603 0.604 0.951 0 1.885-0.1 2.803-0.296 0.92-0.198 1.775-0.488 2.571-0.874 0.795-0.384 1.517-0.865 2.165-1.439 0.647-0.572 1.193-1.238 1.636-1.992 0.212-0.344 0.266-0.696 0.16-1.058-0.107-0.36-0.275-0.655-0.505-0.885-0.262-0.245-0.611-0.393-1.045-0.443-0.435-0.049-0.858 0.082-1.266 0.394-0.477 0.525-0.948 0.972-1.415 1.341-0.468 0.369-0.964 0.668-1.488 0.898-0.526 0.229-1.079 0.398-1.661 0.504-0.583 0.107-1.217 0.16-1.906 0.16-0.755 0-1.497-0.106-2.225-0.32-0.731-0.213-1.386-0.521-1.968-0.922-0.583-0.401-1.059-0.907-1.428-1.514-0.368-0.606-0.553-1.302-0.553-2.091 0-0.836 0.221-1.533 0.664-2.089 0.444-0.558 1.012-1.026 1.709-1.404 0.698-0.376 1.48-0.687 2.35-0.932 0.869-0.248 1.721-0.468 2.559-0.666 1.196-0.362 2.364-0.774 3.504-1.242 1.139-0.467 2.152-1.042 3.038-1.722 0.885-0.679 1.594-1.499 2.127-2.46 0.533-0.959 0.799-2.111 0.799-3.455 0-1.411-0.282-2.703-0.848-3.875s-1.332-2.176-2.3-3.013c-0.967-0.837-2.094-1.488-3.382-1.956-1.287-0.468-2.652-0.7-4.095-0.7-1.18 0-2.321 0.156-3.42 0.468-1.098 0.311-2.107 0.736-3.025 1.279-0.918 0.54-1.726 1.181-2.423 1.917-0.696 0.739-1.225 1.526-1.586 2.361-0.278 0.607-0.324 1.128-0.136 1.564 0.19 0.433 0.48 0.758 0.874 0.97 0.475 0.229 0.911 0.272 1.303 0.124 0.395-0.149 0.804-0.493 1.23-1.033 0.328-0.608 0.747-1.157 1.255-1.648 0.507-0.493 1.078-0.909 1.71-1.255 0.63-0.344 1.315-0.607 2.053-0.786 0.739-0.182 1.508-0.272 2.312-0.272 0.82 0 1.636 0.124 2.448 0.37s1.541 0.606 2.189 1.082c0.648 0.474 1.172 1.066 1.575 1.771 0.401 0.704 0.601 1.524 0.601 2.459 0 0.869-0.205 1.6-0.614 2.188-0.41 0.592-0.938 1.087-1.587 1.489-0.647 0.401-1.386 0.743-2.213 1.02-0.828 0.28-1.661 0.543-2.497 0.788-1.279 0.281-2.514 0.643-3.702 1.096" fill="#3b1650"/></g><g transform="translate(469.13 66.144)"><path d="m0 0c0-0.508-0.176-0.943-0.528-1.305-0.354-0.36-0.784-0.54-1.291-0.54-0.509 0-0.948 0.18-1.317 0.54-0.369 0.362-0.553 0.797-0.553 1.305v19.481c0 0.524 0.18 0.967 0.542 1.329 0.36 0.36 0.802 0.54 1.328 0.54 0.523 0 0.959-0.18 1.302-0.54 0.345-0.362 0.517-0.805 0.517-1.329zm-3.382 28.176c0.419 0.419 0.931 0.628 1.537 0.628 0.607 0 1.119-0.209 1.538-0.628 0.418-0.418 0.627-0.931 0.627-1.537 0-0.592-0.209-1.1-0.627-1.525-0.419-0.427-0.931-0.64-1.538-0.64-0.606 0-1.118 0.213-1.537 0.64-0.418 0.425-0.628 0.933-0.628 1.525 0 0.606 0.21 1.119 0.628 1.537" fill="#3b1650"/></g><g transform="translate(504.14 64.827)"><path d="m0 0c-0.352-0.353-0.773-0.527-1.266-0.527-0.508 0-0.951 0.174-1.328 0.527-0.378 0.353-0.566 0.784-0.566 1.292v13.11c-0.017 0.656-0.148 1.26-0.395 1.808-0.247 0.549-0.58 1.029-0.998 1.439-0.42 0.411-0.904 0.731-1.455 0.959-0.551 0.231-1.146 0.346-1.787 0.346-0.659 0-1.295-0.124-1.912-0.369-0.616-0.246-1.167-0.583-1.651-1.01-0.487-0.426-0.873-0.923-1.161-1.486-0.287-0.567-0.439-1.162-0.455-1.785v-13.012c0-0.508-0.179-0.939-0.538-1.292-0.358-0.353-0.782-0.527-1.27-0.527-0.505 0-0.946 0.174-1.32 0.527-0.375 0.353-0.562 0.784-0.562 1.292v13.136c-0.032 0.637-0.168 1.238-0.405 1.796-0.239 0.556-0.563 1.037-0.972 1.438-0.41 0.401-0.89 0.718-1.438 0.946-0.55 0.231-1.145 0.346-1.785 0.346-0.639 0-1.262-0.119-1.869-0.356-0.606-0.24-1.152-0.564-1.636-0.972-0.483-0.412-0.873-0.891-1.168-1.439-0.295-0.551-0.459-1.136-0.492-1.759v-13.111c0-0.507-0.175-0.943-0.528-1.304-0.354-0.361-0.784-0.54-1.292-0.54s-0.947 0.179-1.316 0.54-0.553 0.795-0.553 1.302v19.46c0 0.524 0.181 0.965 0.541 1.327 0.361 0.36 0.803 0.542 1.328 0.542 0.524 0 0.96-0.18 1.304-0.539 0.344-0.358 0.516-0.798 0.516-1.319v-0.709c0.704 0.781 1.513 1.405 2.422 1.868 0.911 0.466 1.907 0.699 2.989 0.699 1.378 0 2.612-0.297 3.703-0.886 1.09-0.592 1.996-1.386 2.717-2.388 0.886 1.002 1.96 1.796 3.222 2.388 1.263 0.589 2.566 0.886 3.912 0.886 1.148 0 2.205-0.218 3.173-0.652 0.967-0.435 1.803-1.024 2.509-1.769 0.704-0.745 1.259-1.617 1.66-2.617 0.401-0.999 0.619-2.064 0.652-3.194v-13.122c0-0.509-0.176-0.937-0.53-1.29" fill="#3b1650"/></g><g transform="translate(515.05 92.093)"><path d="m0 0v-25.975c0-0.507-0.181-0.939-0.541-1.292-0.361-0.352-0.804-0.527-1.328-0.527-0.525 0-0.951 0.175-1.279 0.527-0.329 0.353-0.493 0.785-0.493 1.292v25.975h-7.255c-0.525 0-0.964 0.182-1.316 0.542-0.353 0.361-0.529 0.794-0.529 1.303 0 0.525 0.176 0.963 0.529 1.317 0.352 0.353 0.791 0.527 1.316 0.527h18.299c0.526 0 0.964-0.179 1.317-0.54 0.352-0.361 0.528-0.802 0.528-1.328 0-0.525-0.176-0.959-0.528-1.304-0.353-0.344-0.791-0.517-1.317-0.517z" fill="#3b1650"/></g><g transform="translate(523.23 86.964)"><path d="m0 0c0.353 0.353 0.791 0.529 1.316 0.529 0.508 0 0.943-0.176 1.304-0.527 0.359-0.353 0.541-0.79 0.541-1.315v-10.097c0.032-2.392 0.577-4.249 1.636-5.575 1.057-1.328 2.545-1.991 4.464-1.991 0.934 0 1.807 0.184 2.619 0.554 0.812 0.367 1.521 0.871 2.128 1.509 0.606 0.639 1.095 1.401 1.464 2.285s0.569 1.843 0.602 2.874v10.392c0 0.523 0.179 0.963 0.537 1.315 0.358 0.35 0.79 0.527 1.295 0.527s0.941-0.177 1.307-0.529c0.367-0.352 0.551-0.79 0.551-1.315v-19.482c0-0.508-0.184-0.941-0.551-1.302-0.366-0.361-0.809-0.542-1.331-0.542-0.521 0-0.952 0.181-1.295 0.544-0.342 0.363-0.513 0.8-0.513 1.313v1.832c-0.951-1.123-2.046-2.014-3.283-2.673-1.239-0.662-2.547-0.991-3.924-0.991-1.427 0-2.718 0.269-3.874 0.811-1.156 0.541-2.143 1.311-2.964 2.313-0.82 0.999-1.452 2.192-1.893 3.578-0.444 1.386-0.664 2.932-0.664 4.636v10.012c0 0.525 0.175 0.962 0.528 1.315" fill="#3b1650"/></g><g transform="translate(553.74 87.445)"><path d="m0 0h2.877c0.525 0 0.963-0.178 1.316-0.529 0.353-0.353 0.529-0.79 0.529-1.316 0-0.525-0.176-0.963-0.529-1.315-0.353-0.353-0.791-0.529-1.316-0.529h-2.877v-17.637c0-0.508-0.182-0.94-0.541-1.292-0.361-0.353-0.797-0.528-1.304-0.528-0.525 0-0.968 0.175-1.329 0.528-0.361 0.352-0.542 0.784-0.542 1.292v17.637h-2.36c-0.525 0-0.968 0.178-1.329 0.542-0.361 0.358-0.54 0.793-0.54 1.302 0 0.526 0.179 0.963 0.54 1.316 0.361 0.351 0.804 0.529 1.329 0.529h2.36v6.519c0 0.525 0.181 0.959 0.542 1.302 0.361 0.346 0.804 0.517 1.329 0.517 0.507 0 0.943-0.171 1.304-0.517 0.359-0.343 0.541-0.777 0.541-1.302z" fill="#3b1650"/></g><g transform="translate(564.06 72.637)"><path d="m0 0c0.418-0.967 0.987-1.817 1.71-2.545 0.721-0.73 1.569-1.309 2.545-1.734 0.975-0.427 2.021-0.64 3.137-0.64 1.131 0 2.184 0.213 3.16 0.64 0.975 0.425 1.824 1.004 2.546 1.734 0.721 0.728 1.288 1.578 1.698 2.545 0.409 0.967 0.614 2.001 0.614 3.101 0 1.114-0.205 2.158-0.614 3.133-0.41 0.977-0.977 1.827-1.698 2.548-0.722 0.722-1.571 1.289-2.546 1.708-0.976 0.418-2.029 0.628-3.16 0.628-1.116 0-2.162-0.21-3.137-0.628-0.976-0.419-1.824-0.986-2.545-1.708-0.723-0.721-1.292-1.571-1.71-2.548-0.418-0.975-0.627-2.019-0.627-3.133 0-1.1 0.209-2.134 0.627-3.101m-3.419 7.674c0.615 1.427 1.455 2.669 2.521 3.728 1.066 1.057 2.312 1.894 3.739 2.509 1.427 0.614 2.943 0.922 4.551 0.922 1.623 0 3.144-0.308 4.563-0.922 1.417-0.615 2.655-1.452 3.714-2.509 1.057-1.059 1.893-2.301 2.509-3.728 0.615-1.426 0.922-2.951 0.922-4.573 0-1.625-0.307-3.146-0.922-4.564-0.616-1.42-1.452-2.662-2.509-3.727-1.059-1.066-2.297-1.905-3.714-2.52-1.419-0.615-2.94-0.923-4.563-0.923-1.608 0-3.124 0.308-4.551 0.923s-2.673 1.454-3.739 2.52c-1.066 1.065-1.906 2.307-2.521 3.727-0.614 1.418-0.922 2.939-0.922 4.564 0 1.622 0.308 3.147 0.922 4.573" fill="#3b1650"/></g><g transform="translate(590.39 83.977)"><path d="m0 0c1.099 1.083 2.373 1.935 3.825 2.558 1.45 0.624 3.004 0.935 4.661 0.935h0.147c0.606 0 1.079-0.177 1.415-0.529 0.336-0.353 0.504-0.792 0.504-1.316 0-0.525-0.19-0.961-0.566-1.304-0.377-0.344-0.829-0.517-1.353-0.517h-0.147c-1.165 0-2.259-0.226-3.284-0.677-1.025-0.45-1.923-1.061-2.693-1.832-0.772-0.77-1.382-1.68-1.832-2.73-0.452-1.049-0.677-2.163-0.677-3.344v-9.077c0-0.508-0.177-0.943-0.528-1.305-0.354-0.36-0.793-0.54-1.317-0.54-0.509 0-0.943 0.18-1.303 0.54-0.362 0.362-0.541 0.797-0.541 1.305v19.481c0 0.524 0.179 0.967 0.541 1.329 0.36 0.36 0.802 0.54 1.328 0.54 0.523 0 0.96-0.18 1.303-0.54 0.345-0.362 0.517-0.805 0.517-1.329z" fill="#3b1650"/></g></g></g></svg>
