<svg version="1.2" xmlns="http://www.w3.org/2000/svg" viewBox="0 0 160 40" width="160" height="40"><style></style><path  d="m46.4 10.3c-0.2 0.4-1.5 3.6-3 7.1-1.5 3.4-2.8 6.3-2.8 6.3-0.2 0-4.6-11.5-4.7-12.1 0-0.7 0.3-1.6 0.6-1.6 0.1 0 0.1-0.1 0.1-0.1 0-0.1-1.1-0.2-3.2-0.2h-3.1l0.6 0.7c0.7 0.8 1.2 2 6.8 15.8 0.9 2.2 1.7 4.1 1.8 4.1 0.1 0 1.5-3.2 3.1-7.1 1.7-3.9 3.1-7.1 3.2-7.1 0 0 1.3 3.2 3 7.1 1.6 3.9 3 7.1 3 7.1 0.1 0 1.8-4 3.7-8.8 2-4.8 3.7-9.1 3.9-9.6 0.3-0.5 0.7-1.2 1.1-1.5l0.6-0.7h-2.3-2.2l0.4 0.4c0.5 0.7 0.6 1.4 0.3 2.4-0.1 0.4-1.2 3.2-2.3 6.1l-2.2 5.3-1.1-2.9c-0.7-1.6-2-4.8-3-7.1-0.9-2.4-1.8-4.3-1.8-4.3-0.1 0-0.3 0.3-0.5 0.7z"/><path  d="m63.4 13.2c0 0.1 0.1 0.3 0.3 0.4 0.8 0.7 0.8 0.7 0.8 7.4 0.1 6.8 0 7.4-0.7 8.1-0.2 0.2-0.4 0.5-0.4 0.5 0 0.1 1.3 0.1 2.9 0.1h2.9l-0.5-0.5c-0.2-0.2-0.5-0.6-0.6-0.9-0.1-0.2-0.2-2.6-0.2-6.9 0-6 0.1-6.5 0.3-7.1 0.2-0.3 0.4-0.7 0.6-0.8 0.2-0.1 0.3-0.2 0.3-0.3 0-0.1-1.3-0.1-2.8-0.1-1.6 0-2.9 0-2.9 0.1z"/><path  d="m74.9 13.2c0 0.1 0.1 0.2 0.3 0.3 0.1 0.1 0.4 0.5 0.5 0.8 0.3 0.6 0.3 1.1 0.3 7 0 3.8 0 6.6-0.1 6.9-0.1 0.3-0.4 0.8-0.6 1l-0.5 0.5h15.2l0.4-1.7c0.2-0.9 0.3-1.7 0.3-1.8-0.1-0.1-0.3 0.2-0.6 0.4-1.3 1.5-2 1.6-6.8 1.6h-3.9v-6.6c0-6 0-6.6 0.3-7.1 0.1-0.4 0.4-0.8 0.7-0.9 0.2-0.2 0.3-0.4 0.3-0.4 0-0.1-1.3-0.1-2.9-0.1-1.6 0-2.9 0-2.9 0.1z"/><path  d="m93.2 13.2c-0.1 0 0.1 0.2 0.3 0.4 0.8 0.6 0.8 0.7 0.8 7.8 0 4.2-0.1 6.7-0.2 6.9-0.1 0.3-0.3 0.7-0.6 0.9l-0.5 0.5h8c7.4 0 8 0 8-0.3 0.2-0.5 0.6-3 0.5-3 0-0.1-0.4 0.2-0.8 0.6-1.3 1.1-1.9 1.2-6.9 1.2h-4.2v-6.6h3.3c3.3 0.1 3.8 0.2 4.5 0.9 0.1 0.1 0.3 0.3 0.4 0.3 0 0 0.1-0.8 0.1-1.8 0-1.1-0.1-1.9-0.1-1.9-0.1 0-0.3 0.2-0.6 0.4-0.7 0.5-1.4 0.6-4.6 0.6h-3v-5.5h3.5c4.6 0 5.7 0.2 6.8 1.3 0.7 0.8 0.7 0.7 0.4-2.1l-0.1-0.7h-7.5c-4.1 0-7.5 0-7.5 0.1z"/><path  d="m111.3 13.2c0 0.1 0.2 0.2 0.3 0.3 0.5 0.1 1.5 1.3 4.4 5.5l2.8 4.1v2.4c0 2.7-0.1 3.2-0.8 3.8-0.2 0.1-0.4 0.3-0.4 0.3 0 0.1 1.4 0.1 3 0.1h3l-0.5-0.5c-0.8-0.8-0.8-1-0.9-3.7v-2.5l2.7-3.9c2.9-4.1 4-5.5 4.5-5.6q1.2-0.4-2-0.4c-1.2 0-2.3 0-2.3 0.1 0 0 0.2 0.2 0.3 0.4 0.4 0.5 0.4 1.1 0.1 1.7-0.1 0.3-1 1.8-2.1 3.3l-1.9 2.7-2-2.9c-1.2-1.7-2.1-3.2-2.2-3.4-0.3-0.6-0.3-1.1 0.1-1.4 0.1-0.1 0.2-0.3 0.2-0.4 0-0.1-1.4-0.1-3.1-0.1-1.9 0-3.2 0-3.2 0.1z"/></svg>
