<svg width="512" height="513" viewBox="0 0 512 513" fill="none" xmlns="http://www.w3.org/2000/svg">
<path d="M348.096 260.944C299.523 260.944 260.141 298.836 260.141 345.579H250.087C250.087 298.836 210.71 260.944 162.131 260.944V251.272C210.71 251.272 250.087 213.379 250.087 166.632H260.141C260.141 213.379 299.523 251.272 348.096 251.272V260.944Z" fill="#46255F"/>
<path fill-rule="evenodd" clip-rule="evenodd" d="M300.145 201.719H309.719L311.874 195.053H324.105L326.311 201.719H336.236L323.805 166.632H312.676L300.145 201.719ZM314.23 187.784L317.94 176.406L321.699 187.784H314.23Z" fill="#46255F"/>
<path d="M338.979 166.632V201.719H348.202V166.632H338.979Z" fill="#46255F"/>
<path fill-rule="evenodd" clip-rule="evenodd" d="M344.421 93.2277C332.898 92.2862 318.642 92.2863 300.842 92.2864H213.158C195.358 92.2863 181.102 92.2862 169.579 93.2277C157.747 94.1943 147.507 96.2265 138.082 101.029C122.99 108.719 110.719 120.99 103.029 136.082C98.2265 145.507 96.1943 155.747 95.2277 167.579C94.2862 179.102 94.2863 193.358 94.2864 211.158L94.2864 301.842C94.2863 319.642 94.2862 333.898 95.2277 345.421C96.1943 357.253 98.2265 367.493 103.029 376.918C110.719 392.01 122.99 404.281 138.082 411.971C147.507 416.773 157.747 418.806 169.579 419.772C181.101 420.714 195.357 420.714 213.157 420.714H300.843C318.643 420.714 332.899 420.714 344.421 419.772C356.253 418.806 366.493 416.773 375.918 411.971C391.01 404.281 403.281 392.01 410.971 376.918C415.773 367.493 417.806 357.253 418.772 345.421C419.714 333.899 419.714 319.643 419.714 301.843V211.157C419.714 193.357 419.714 179.101 418.772 167.579C417.806 155.747 415.773 145.507 410.971 136.082C403.281 120.99 391.01 108.719 375.918 101.029C366.493 96.2265 356.253 94.1943 344.421 93.2277ZM109 211.795C109 175.114 109 156.773 116.139 142.762C122.418 130.438 132.438 120.418 144.762 114.139C158.773 107 177.114 107 213.795 107H300.205C336.886 107 355.227 107 369.238 114.139C381.562 120.418 391.582 130.438 397.861 142.762C405 156.773 405 175.114 405 211.795V301.205C405 337.886 405 356.227 397.861 370.238C391.582 382.562 381.562 392.582 369.238 398.861C355.227 406 336.886 406 300.205 406H213.795C177.114 406 158.773 406 144.762 398.861C132.438 392.582 122.418 382.562 116.139 370.238C109 356.227 109 337.886 109 301.205V211.795Z" fill="#46255F"/>
</svg>
